<svg id="Layer_1" enable-background="new 0 0 512 512" height="50px" viewBox="0 0 512 512" width="50px"
  xmlns="http://www.w3.org/2000/svg">
 
  <g>
    <path d="m36.527 20.46-32.133 32.134c-5.858 5.858-5.858 15.355 0 21.213l32.133 32.133c2.812 2.813 6.628 4.394 10.606 4.394h3.2v-94.267h-3.2c-3.978 0-7.794 1.58-10.606 4.393z"/>
    <path d="m507.606 52.593-32.133-32.133c-2.812-2.813-6.628-4.393-10.606-4.393h-3.2v94.267h3.2c3.979 0 7.794-1.58 10.606-4.393l32.134-32.133c2.813-2.814 4.393-6.629 4.393-10.608s-1.58-7.793-4.394-10.607z"/>
    <path d="m262.708 322.917 168.959 84.479-.001-392.396c0-8.284-6.716-15-15-15h-64.267c-8.284 0-15 6.716-15 15v129.6h-34.267v-129.6c0-8.284-6.716-15-15-15h-64.267c-8.284 0-15 6.716-15 15v129.6h-34.265v-129.6c0-8.284-6.716-15-15-15h-64.267c-8.284 0-15 6.716-15 15v392.396l168.959-84.479c4.223-2.111 9.193-2.111 13.416 0z"/>
    <path d="m80.333 440.937v56.063c0 5.199 2.691 10.027 7.114 12.76 4.422 2.733 9.944 2.981 14.594.657l153.959-76.98 153.959 76.979c4.649 2.325 10.172 2.076 14.594-.657 4.423-2.733 7.114-7.561 7.114-12.76v-56.062l-175.667-87.833z"/>
  </g>
</svg>