<?xml version="1.0" encoding="UTF-8" standalone="no"?>
<!DOCTYPE svg PUBLIC "-//W3C//DTD SVG 1.1//EN" "http://www.w3.org/Graphics/SVG/1.1/DTD/svg11.dtd">
<svg version="1.1" xmlns="http://www.w3.org/2000/svg" xmlns:xlink="http://www.w3.org/1999/xlink" preserveAspectRatio="xMidYMid meet" viewBox="4.305 -1 121.39000000000001 131.99999999999997" width="117.39" height="128"><defs><path d="M64 124.24C41.07 124.24 25.1 119.72 16.53 110.81C11.24 105.29 8.74 97.98 9.1 89.07C9.42 81 12.54 71.83 18.36 61.84C18.88 60.94 18.57 59.79 17.68 59.27C16.78 58.75 15.63 59.05 15.11 59.95C8.98 70.48 5.69 80.23 5.34 88.92C4.94 98.89 7.79 107.13 13.82 113.41C23.12 123.09 40 128 64 128C81.89 128 95.89 125.27 105.62 119.88C106.53 119.37 106.86 118.23 106.36 117.32C105.85 116.42 104.71 116.09 103.8 116.59C94.63 121.67 81.24 124.24 64 124.24Z" id="b2DvEh9I1"></path><path d="M91.1 31.38C93.21 30.55 94.71 28.49 94.71 26.09C94.71 23.27 92.65 20.93 89.96 20.48C90.66 19.28 96.32 9.7 97.02 8.5C99.3 4.93 96.4 -0.14 92.17 0C86.54 0 41.46 0 35.83 0C31.6 -0.14 28.7 4.93 30.98 8.5C31.68 9.7 37.34 19.28 38.04 20.48C35.35 20.93 33.29 23.27 33.29 26.09C33.29 28.49 34.79 30.55 36.9 31.38C29.89 38.94 23.93 46.36 19.16 53.48C18.58 54.34 18.81 55.51 19.68 56.09C20.54 56.67 21.7 56.44 22.28 55.57C27.39 47.94 33.92 39.94 41.68 31.78C43.24 31.78 51.05 31.78 65.1 31.78C62.22 40.41 60.62 45.21 60.3 46.17C59.31 49.15 60.92 52.37 63.9 53.37C66.77 54.39 70.18 52.69 71.09 49.77C71.4 48.85 72.94 44.23 75.71 35.91C80.06 49.33 82.48 56.78 82.96 58.27C83.84 61.2 87.24 62.93 90.12 61.93C93.11 60.96 94.75 57.74 93.78 54.76C93.03 52.46 87.07 34.08 86.32 31.79C100.88 47.09 118.1 69.25 118.9 89.07C119.3 98.93 116.19 106.82 109.67 112.52C108.89 113.2 108.81 114.39 109.49 115.17C110.17 115.95 111.36 116.03 112.14 115.35C119.57 108.86 123.1 99.97 122.66 88.92C121.85 68.89 105.62 47.05 91.1 31.38ZM67.52 48.58C67.22 49.57 66.06 50.15 65.08 49.8C64.07 49.47 63.53 48.37 63.86 47.36C64.21 46.32 65.94 41.13 69.06 31.78L73.12 31.78C70.14 40.74 68.27 46.34 67.52 48.58ZM90.2 55.92C90.53 56.93 89.98 58.02 88.96 58.35C87.95 58.68 86.86 58.12 86.53 57.11C85.99 55.42 83.25 46.98 78.31 31.78L82.37 31.78C86.55 44.65 89.16 52.7 90.2 55.92ZM38.98 28.02C37.91 28.02 37.05 27.15 37.05 26.09C37.05 25.03 37.91 24.16 38.98 24.16C40.64 24.16 53.97 24.16 55.64 24.16C56.68 24.16 57.52 23.32 57.52 22.28C57.52 21.24 56.68 20.4 55.64 20.4C54.75 20.4 50.33 20.4 42.36 20.4C37.47 12.12 34.76 7.51 34.21 6.59C33.53 5.14 34.23 3.92 35.83 3.76C41.46 3.76 86.54 3.76 92.17 3.76C93.77 3.92 94.47 5.14 93.79 6.59C93.24 7.51 90.53 12.12 85.64 20.4C72.15 20.4 64.65 20.4 63.15 20.4C62.12 20.4 61.28 21.24 61.28 22.28C61.28 23.32 62.12 24.16 63.15 24.16C65.74 24.16 86.44 24.16 89.02 24.16C90.09 24.16 90.95 25.03 90.95 26.09C90.95 27.15 90.09 28.02 89.02 28.02C79.01 28.02 43.98 28.02 38.98 28.02Z" id="avgufqyyc"></path></defs><g><g><use xlink:href="#b2DvEh9I1" opacity="1" fill="#000000" fill-opacity="1"></use><g><use xlink:href="#b2DvEh9I1" opacity="1" fill-opacity="0" stroke="#000000" stroke-width="1" stroke-opacity="0"></use></g></g><g><use xlink:href="#avgufqyyc" opacity="1" fill="#000000" fill-opacity="1"></use><g><use xlink:href="#avgufqyyc" opacity="1" fill-opacity="0" stroke="#000000" stroke-width="1" stroke-opacity="0"></use></g></g></g></svg>