<svg width="16" height="16" version="1.1" viewBox="0 0 10.667 10.667" xmlns="http://www.w3.org/2000/svg"><path d="m10.473 1.726c-0.3014 0.00164-0.6029 1.336e-4 -0.90434 5.629e-4 -3.1299-2.05e-4 -6.2599 2.841e-4 -9.3898 3.384e-4 -0.10428 0.00344-0.18982 0.10693-0.17714 0.20978 4.77e-5 0.40952-0.00172 0.81905 0.0018 1.2286 0.013915 0.098206 0.11442 0.17194 0.21213 0.15906 0.086043 5.84e-5 0.17209 1.2e-4 0.25813 1.784e-4 1.816e-4 1.8148 3.612e-4 3.6297 5.409e-4 5.4445 0.00762 0.10162 0.1088 0.18352 0.20972 0.17071 0.58166 4.276e-4 1.1633 0.00142 1.745-0.00102 0.078738-0.010591 0.13036-0.076208 0.18631-0.12537 0.096664-0.085908 0.18596-0.18242 0.29703-0.2503 0.13239-0.076797 0.28855-0.10505 0.44027-0.095969 1.3627 2.769e-4 2.7253-6e-4 4.088 0.00139 0.029655 0.0016 0.056033 0.00478 0.086799 0.010392 0.15444 0.028747 0.29575 0.11134 0.40459 0.22353 0.081702 0.072506 0.15775 0.15242 0.24607 0.2168 0.067645 0.033231 0.14383 0.017597 0.2157 0.021031 0.54527-3.08e-5 1.0905 3.353e-4 1.6358-0.0012 0.09966-0.011481 0.17713-0.11213 0.16398-0.21134 9.75e-4 -1.8009 4.68e-4 -3.6018 5.39e-4 -5.4028 0.10744-0.0016 0.2153 0.00374 0.32244-0.00489 0.09479-0.016995 0.16161-0.11614 0.1495-0.21031-3.08e-4 -0.40821 0.0021-0.81656-0.0021-1.2247-0.01328-0.090644-0.09991-0.16127-0.19094-0.15904z" stroke-width=".030766"/></svg>
