<svg version="1.1" viewBox="0 0 24 24" xmlns="http://www.w3.org/2000/svg"><path d="m19.761 6.6292c-5.2041 0-10.408 2.602e-4 -15.612 8.134e-4 -0.086399 0.00566-0.15768 0.090919-0.14773 0.17712-4.878e-4 0.62375-0.00185 1.2475 0.00163 1.8712 0.012844 0.083082 0.09804 0.14682 0.18151 0.13524 0.17865 3.916e-4 0.35734 3.916e-4 0.53602 3.563e-4 -9.74e-5 2.8037 1.627e-4 5.6073 8.8e-4 8.411 0.00774 0.08474 0.091504 0.15462 0.17667 0.14412 0.53693 0.0016 1.0739 3.88e-4 1.6108 8.67e-4 0.35073-3.25e-4 0.70153-1.31e-4 1.0522-0.0023 0.077262-0.01357 0.1248-0.08259 0.18171-0.12974 0.13651-0.12373 0.26762-0.25406 0.41349-0.3669 0.22697-0.16177 0.51059-0.23617 0.7878-0.22209 2.0845 2.27e-4 4.1691-4.23e-4 6.2534 0.0014 0.30931 0.01113 0.60818 0.15137 0.82461 0.3708 0.12227 0.10942 0.23855 0.226 0.36615 0.32921 0.0693 0.03362 0.14844 0.01515 0.22242 0.01951 0.84393-3.25e-4 1.6879 0.0011 2.5318-0.0019 0.08279-0.01171 0.14799-0.09528 0.13683-0.17875 0.0017-0.9273 2.61e-4 -1.8546 8e-4 -2.7819v-5.59c0.198-8e-3 0.39626 0.00277 0.59419-0.00722 0.07859-0.017787 0.13556-0.099829 0.1248-0.17979 9.8e-5 -0.62095 2e-3 -1.2421-0.0014-1.8629-0.01113-0.08048-0.09031-0.14535-0.1718-0.13765a1.6109 1.6109 0 0 0-0.064584-3.572e-4zm-15.37 0.32524h15.283v1.5344h-15.348v-1.5344zm0.71958 1.8595h1.4766c3.564e-4 0.72716-0.00169 1.4543 0.00221 2.1814 0.01317 0.08116 0.095439 0.14483 0.17768 0.13417 0.50041 8e-4 1.0009 2e-3 1.5013-9.34e-4 0.045005-0.0023 0.094073 0.0072 0.13365-0.02033 0.055053-0.03251 0.088937-0.09732 0.080645-0.16122 0.00152-0.71106 3.252e-4 -1.4221 6.734e-4 -2.1331h7.0335c3.53e-4 0.72709-0.0017 1.4543 0.0023 2.1814 0.01297 0.08136 0.0956 0.1449 0.17784 0.13417 0.49401 1e-3 0.98801 0.0021 1.482-7.33e-4 0.04035-0.0031 0.08227 0.0047 0.12158-0.0062 0.0718-0.02357 0.12191-0.09999 0.11176-0.17546 0.0015-0.71106 3.26e-4 -1.4221 6.67e-4 -2.1331h1.5416v8.2309h-2.4254c-0.16623-0.14496-0.31893-0.30589-0.49615-0.43788-0.24804-0.17647-0.54955-0.27617-0.85391-0.28228-0.1355-0.0019-0.27656-3.25e-4 -0.41418-8.67e-4 -1.9259 2.6e-4 -3.8517 9.8e-5 -5.7777 0.0012-0.12132 5.64e-4 -0.24336-0.0035-0.36355 0.01658-0.32846 0.04743-0.63488 0.21112-0.86952 0.44398-0.094135 0.08637-0.18821 0.17283-0.28231 0.25923h-2.4265v-8.2308h0.065035zm1.8668 0h1.1807v1.9911h-1.2457v-1.9911zm8.9296 0h1.1807v1.9911h-1.2458v-1.9911z" stroke-width=".032518"/></svg>
