<svg width="16" height="16" version="1.1" viewBox="0 0 10.667 10.667" xmlns="http://www.w3.org/2000/svg"><path d="m10.473 1.726c-0.3014 0.00164-0.6029 1.336e-4 -0.90434 5.629e-4 -3.1299-2.05e-4 -6.2599 2.841e-4 -9.3898 3.384e-4 -0.10428 0.00344-0.18982 0.10693-0.17714 0.20978 4.77e-5 0.40952-0.00172 0.81905 0.0018 1.2286 0.013915 0.098206 0.11442 0.17194 0.21213 0.15906 0.086043 5.84e-5 0.17209 1.2e-4 0.25813 1.784e-4 1.816e-4 1.8148 3.612e-4 3.6297 5.409e-4 5.4445 0.00762 0.10162 0.1088 0.18352 0.20972 0.17071 0.58166 4.276e-4 1.1633 0.00142 1.745-0.00102 0.078738-0.010591 0.13036-0.076208 0.18631-0.12537 0.096664-0.085908 0.18596-0.18242 0.29703-0.2503 0.13239-0.076797 0.28855-0.10505 0.44027-0.095969 1.3627 2.769e-4 2.7253-6e-4 4.088 0.00139 0.029655 0.0016 0.056033 0.00478 0.086799 0.010392 0.15444 0.028747 0.29575 0.11134 0.40459 0.22353 0.081702 0.072506 0.15775 0.15242 0.24607 0.2168 0.067645 0.033231 0.14383 0.017597 0.2157 0.021031 0.54527-3.08e-5 1.0905 3.353e-4 1.6358-0.0012 0.09966-0.011481 0.17713-0.11213 0.16398-0.21134 9.75e-4 -1.8009 4.68e-4 -3.6018 5.39e-4 -5.4028 0.10744-0.0016 0.2153 0.00374 0.32244-0.00489 0.09479-0.016995 0.16161-0.11614 0.1495-0.21031-3.08e-4 -0.40821 0.0021-0.81656-0.0021-1.2247-0.01328-0.090644-0.09991-0.16127-0.19094-0.15904zm-0.18447 0.37802v0.84293c-3.3032 1e-7 -6.6063 0-9.9095 0v-0.84293h9.9095zm-8.59 1.8771c6.209e-4 0.23517-2.984e-4 0.47051 0.00246 0.70556 0.014303 0.097044 0.11344 0.17035 0.21032 0.15774 0.34362 1.05e-5 0.6873 0.00233 1.0309-0.00193 0.10174-0.00832 0.17809-0.11301 0.16477-0.21231 4.48e-4 -0.4352 6.412e-4 -0.8704 4.784e-4 -1.3056h4.4522c3.661e-4 0.45376-0.00127 0.90766 0.00218 1.3613 0.013964 0.097469 0.11347 0.17117 0.21067 0.1585 0.34372 2.37e-5 0.68751 0.00247 1.0312-0.00193 0.10098-0.00892 0.17733-0.11253 0.16428-0.21146 4e-4 -0.43546 5.692e-4 -0.87092 4.184e-4 -1.3064h0.84767v5.2382h-1.4787c-0.14253-0.12701-0.27476-0.27216-0.44935-0.35629-0.16934-0.086521-0.36143-0.1232-0.55086-0.1169-1.3685 1.231e-4 -2.7371-9.23e-5 -4.1056 0.0014-0.27067 0.00636-0.534 0.12393-0.72782 0.31151-0.05826 0.053226-0.11585 0.10714-0.17419 0.16029h-1.4787v-5.2381c0.2826-4e-5 0.5652-8e-5 0.84779-1.2e-4l-1.2e-4 0.65653zm1.0312-0.65653v1.1427h-0.65347v-1.1427h0.65347zm5.8609 0v1.1427h-0.65353v-1.1427h0.65353z" stroke-width=".030766"/></svg>
