<?xml version="1.0" encoding="UTF-8"?>
<!-- Generator: Adobe Illustrator 19.0.0, SVG Export Plug-In . SVG Version: 6.00 Build 0)  -->
<svg enable-background="new 0 0 512 512" version="1.1" viewBox="0 0 512 512" xml:space="preserve"
   xmlns="http://www.w3.org/2000/svg">
   <path d="m494.67 90.848c-160.04-6.92e-4 -320.08 0.0078-480.12 0.02539-2.6568 0.17372-4.849 2.7958-4.5435 5.4469-0.014563 19.182-0.05621 38.364 0.05135 57.545 0.39412 2.5549 3.0139 4.5152 5.5809 4.1585 5.4945 0.0123 10.989 0.0125 16.484 0.0114-0.0031 86.22 0.0057 172.44 0.02734 258.66 0.23838 2.6058 2.8143 4.7545 5.4328 4.4316 16.512 0.0508 33.025 0.0126 49.537 0.0268 10.786-9e-3 21.574-4e-3 32.358-0.069 2.3758-0.4177 3.8378-2.541 5.5881-3.9911 4.1981-3.8031 8.2309-7.811 12.716-11.281 6.9793-4.9757 15.702-7.2638 24.227-6.8299 64.103 6e-3 128.21-0.0138 192.31 0.0417 9.5116 0.34197 18.703 4.655 25.359 11.403 3.7609 3.3649 7.3363 6.9492 11.26 10.124 2.131 1.0335 4.5655 0.46553 6.8398 0.59893 25.953-0.01 51.908 0.0352 77.859-0.0554 2.5463-0.36054 4.5514-2.9299 4.2082-5.4966 0.0527-28.517 8e-3 -57.035 0.0226-85.552v-171.91c6.0892-0.24671 12.186 0.0846 18.273-0.22265 2.4177-0.54658 4.1692-3.0701 3.838-5.5281 3e-3 -19.096 0.0609-38.197-0.0419-57.29-0.34221-2.4753-2.7778-4.4697-5.2835-4.233-0.66174-0.02081-1.3233-0.01722-1.9852-0.01151zm-472.67 10.002h470v47.186h-472v-47.186h2zm22.129 57.186h45.408c0.01134 22.362-0.05168 44.725 0.06781 67.085 0.4056 2.4965 2.9351 4.4543 5.4642 4.1259 15.389 0.0237 30.779 0.0615 46.168-0.0277 1.3844-0.0704 2.8926 0.21887 4.1091-0.62511 1.6934-0.99989 2.7355-2.993 2.4811-4.9582 0.0463-21.867 0.01-43.734 0.0209-65.6h216.3c0.0113 22.361-0.052 44.724 0.0689 67.084 0.39871 2.5025 2.9392 4.4565 5.469 4.126 15.192 0.03 30.384 0.0652 45.576-0.0231 1.2414-0.0933 2.5301 0.14404 3.7385-0.18937 2.2085-0.72562 3.749-3.0756 3.4372-5.3968 0.0463-21.867 0.01-43.734 0.0209-65.6h47.408v253.12h-74.586c-5.1117-4.4578-9.8072-9.4071-15.258-13.466-7.6279-5.4265-16.9-8.4928-26.26-8.6809-4.1663-0.0566-8.5045-0.01-12.737-0.0245-59.226 8e-3 -118.45 3e-3 -177.68 0.0359-3.7311 0.0165-7.4834-0.10822-11.179 0.51042-10.102 1.4576-19.525 6.4913-26.741 13.652-2.8946 2.6568-5.7876 5.3153-8.6816 7.9727h-74.621v-253.12h2zm57.41 0h36.309v61.232h-38.309c1e-6 -20.411 0-40.822 0-61.232h2zm274.61 0h36.311v61.232h-38.311v-61.232h2z"/>

</svg>
